<svg xmlns="http://www.w3.org/2000/svg" width="119.345" height="25.732" viewBox="0 0 119.345 25.732">
                <g id="ico_logotype" transform="translate(-249.146 -388.073)">
                  <path id="Tracé_2" data-name="Tracé 2" d="M261.924,403.473v2.5H267.6c-.116,3.582-3.784,6.521-7.189,6.521-4.745,0-8.529-4.364-8.529-8.964a8.653,8.653,0,0,1,15.661-5.328l1.921-1.835a11.426,11.426,0,0,0-20.317,7.25A11.359,11.359,0,0,0,260.235,415c6.142,0,10.393-4.629,10.393-10.654v-.873Z" transform="translate(0 -1.195)"/>
                  <path id="Tracé_3" data-name="Tracé 3" d="M285.707,401.215h-2.62v13.624h2.62V401.215Zm-1.31-8.063a1.82,1.82,0,0,0-1.8,1.834,1.8,1.8,0,0,0,3.609,0,1.82,1.82,0,0,0-1.8-1.834Z" transform="translate(-9.874 -1.499)" fill-rule="evenodd"/>
                  <path id="Tracé_4" data-name="Tracé 4" d="M292.631,404.592h-2.94l6.84,14.09,6.87-14.09h-2.94l-3.93,8.5-3.9-8.5Z" transform="translate(-11.969 -4.876)"/>
                  <path id="Tracé_5" data-name="Tracé 5" d="M316.437,416.183c-2.766,0-4.308-2.387-4.308-4.949,0-2.532,1.6-4.891,4.308-4.891,2.823,0,4.425,2.242,4.425,4.891,0,2.678-1.572,4.949-4.425,4.949Zm6.9-11.762h-2.62v2.27h-.058a5.571,5.571,0,0,0-4.716-2.676c-3.958,0-6.433,3.406-6.433,7.131,0,3.9,2.357,7.364,6.52,7.364a5.585,5.585,0,0,0,4.628-2.591h.058v2.125h2.62V404.422Z" transform="translate(-17.82 -4.706)" fill-rule="evenodd"/>
                  <path id="Tracé_6" data-name="Tracé 6" d="M334.035,404.592v7.832c0,3.725,1.747,6.257,5.764,6.257s5.764-2.532,5.764-6.257v-7.832h-2.621v7.539c0,2.183-.552,4.1-3.143,4.1s-3.145-1.921-3.145-4.1v-7.539Z" transform="translate(-25.06 -4.876)"/>
                  <path id="Tracé_7" data-name="Tracé 7" d="M361.03,411.477c-2.766,0-4.311-2.387-4.311-4.949,0-2.532,1.6-4.891,4.311-4.891,2.822,0,4.423,2.242,4.423,4.891,0,2.678-1.57,4.949-4.423,4.949Zm4.28,1.862h2.618V388.073h-2.618v13.913h-.059a5.585,5.585,0,0,0-4.746-2.676c-3.929,0-6.4,3.406-6.4,7.131,0,3.9,2.331,7.364,6.519,7.364a5.626,5.626,0,0,0,4.631-2.591h.059v2.125Z" transform="translate(-30.983)" fill-rule="evenodd"/>
                  <path id="Tracé_8" data-name="Tracé 8" d="M383.409,416.183c-2.765,0-4.308-2.387-4.308-4.949,0-2.532,1.6-4.891,4.308-4.891,2.823,0,4.424,2.242,4.424,4.891,0,2.678-1.572,4.949-4.424,4.949Zm6.9-11.762h-2.621v2.27h-.059a5.569,5.569,0,0,0-4.715-2.676c-3.958,0-6.433,3.406-6.433,7.131,0,3.9,2.357,7.364,6.52,7.364a5.585,5.585,0,0,0,4.628-2.591h.059v2.125h2.621V404.422Z" transform="translate(-37.59 -4.706)" fill-rule="evenodd"/>
                  <path id="Tracé_9" data-name="Tracé 9" d="M404.619,404.422H402v13.624h2.619v-6.259c0-2.474,0-5.443,3.377-5.443,2.68,0,3,1.572,3,3.9v7.8h2.619v-8.122c0-3.319-.992-5.908-4.831-5.908a4.649,4.649,0,0,0-4.105,2.241h-.058v-1.835Z" transform="translate(-45.123 -4.706)"/>
                </g>
              </svg>