<?xml version="1.0" encoding="UTF-8" standalone="no"?>
<svg
   xmlns:dc="http://purl.org/dc/elements/1.1/"
   xmlns:cc="http://creativecommons.org/ns#"
   xmlns:rdf="http://www.w3.org/1999/02/22-rdf-syntax-ns#"
   xmlns:svg="http://www.w3.org/2000/svg"
   xmlns="http://www.w3.org/2000/svg"
   xmlns:sodipodi="http://sodipodi.sourceforge.net/DTD/sodipodi-0.dtd"
   xmlns:inkscape="http://www.inkscape.org/namespaces/inkscape"
   sodipodi:docname="menu_hamburguer.svg"
   inkscape:version="1.0 (4035a4fb49, 2020-05-01)"
   id="svg1276"
   version="1.1"
   viewBox="0 0 210 297"
   height="297mm"
   width="210mm">
  <defs
     id="defs1270" />
  <sodipodi:namedview
     inkscape:window-maximized="1"
     inkscape:window-y="-8"
     inkscape:window-x="-8"
     inkscape:window-height="715"
     inkscape:window-width="1366"
     showgrid="false"
     inkscape:document-rotation="0"
     inkscape:current-layer="layer1"
     inkscape:document-units="mm"
     inkscape:cy="560"
     inkscape:cx="400"
     inkscape:zoom="0.35"
     inkscape:pageshadow="2"
     inkscape:pageopacity="0.0"
     borderopacity="1.0"
     bordercolor="#666666"
     pagecolor="#ffffff"
     id="base" />
  <metadata
     id="metadata1273">
    <rdf:RDF>
      <cc:Work
         rdf:about="">
        <dc:format>image/svg+xml</dc:format>
        <dc:type
           rdf:resource="http://purl.org/dc/dcmitype/StillImage" />
        <dc:title></dc:title>
      </cc:Work>
    </rdf:RDF>
  </metadata>
  <g
     id="layer1"
     inkscape:groupmode="layer"
     inkscape:label="Capa 1">
    <g
       id="g822"
       transform="matrix(2.433612,0,0,-2.433612,118.39095,138.11711)">
      <path
         d="m 0,0 h -11.005 c -0.176,0 -0.319,0.143 -0.319,0.319 0,0.176 0.143,0.319 0.319,0.319 H 0 C 0.176,0.638 0.319,0.495 0.319,0.319 0.319,0.143 0.176,0 0,0"
         style="fill:#293b75;fill-opacity:1;fill-rule:nonzero;stroke:none"
         id="path824" />
    </g>
    <g
       id="g826"
       transform="matrix(2.433612,0,0,-2.433612,118.39095,160.43554)">
      <path
         d="m 0,0 h -11.005 c -0.176,0 -0.319,0.143 -0.319,0.319 0,0.176 0.143,0.319 0.319,0.319 H 0 C 0.176,0.638 0.319,0.495 0.319,0.319 0.319,0.143 0.176,0 0,0"
         style="fill:#293b75;fill-opacity:1;fill-rule:nonzero;stroke:none"
         id="path828" />
    </g>
    <g
       id="g830"
       transform="matrix(2.433612,0,0,-2.433612,118.39095,149.27644)">
      <path
         d="m 0,0 h -11.005 c -0.176,0 -0.319,0.143 -0.319,0.319 0,0.176 0.143,0.319 0.319,0.319 H 0 C 0.176,0.638 0.319,0.495 0.319,0.319 0.319,0.143 0.176,0 0,0"
         style="fill:#293b75;fill-opacity:1;fill-rule:nonzero;stroke:none"
         id="path832" />
    </g>
  </g>
</svg>
