<?xml version="1.0" encoding="UTF-8" standalone="no"?>
<svg
   xmlns:dc="http://purl.org/dc/elements/1.1/"
   xmlns:cc="http://creativecommons.org/ns#"
   xmlns:rdf="http://www.w3.org/1999/02/22-rdf-syntax-ns#"
   xmlns:svg="http://www.w3.org/2000/svg"
   xmlns="http://www.w3.org/2000/svg"
   xmlns:sodipodi="http://sodipodi.sourceforge.net/DTD/sodipodi-0.dtd"
   xmlns:inkscape="http://www.inkscape.org/namespaces/inkscape"
   inkscape:version="1.0 (4035a4fb49, 2020-05-01)"
   inkscape:export-ydpi="96"
   inkscape:export-xdpi="96"
   inkscape:export-filename="C:\Users\Admin\GitHub\websites\constructora-del-bajio\public\images\portfolio\liverpool\liverpool.png"
   sodipodi:docname="liverpool.svg"
   id="svg27"
   version="1.1"
   viewBox="0 0 287 66"
   height="66px"
   width="287px">
  <metadata
     id="metadata31">
    <rdf:RDF>
      <cc:Work
         rdf:about="">
        <dc:format>image/svg+xml</dc:format>
        <dc:type
           rdf:resource="http://purl.org/dc/dcmitype/StillImage" />
      </cc:Work>
    </rdf:RDF>
  </metadata>
  <sodipodi:namedview
     inkscape:current-layer="svg27"
     inkscape:window-maximized="0"
     inkscape:window-y="88"
     inkscape:window-x="190"
     inkscape:cy="33.037576"
     inkscape:cx="87.966624"
     inkscape:zoom="3.7038328"
     showgrid="false"
     id="namedview29"
     inkscape:window-height="710"
     inkscape:window-width="1073"
     inkscape:pageshadow="2"
     inkscape:pageopacity="0"
     guidetolerance="10"
     gridtolerance="10"
     objecttolerance="10"
     borderopacity="1"
     bordercolor="#666666"
     pagecolor="#ffffff" />
  <!-- Generator: Sketch 43.1 (39012) - http://www.bohemiancoding.com/sketch -->
  <title
     id="title2">Group Copy</title>
  <desc
     id="desc4">Created with Sketch.</desc>
  <defs
     id="defs6" />
  <g
     style="fill:#e10098;fill-opacity:1"
     fill-rule="evenodd"
     fill="none"
     stroke-width="1"
     stroke="none"
     id="Page-1">
    <g
       style="fill:#e10098;fill-opacity:1"
       fill="#FFFFFF"
       id="Group-Copy">
      <path
         style="fill:#e10098;fill-opacity:1"
         id="Fill-1"
         d="M34.0672051,35.7533884 L20.2545263,35.7533884 C18.7195619,35.7533884 18.22325,34.8127902 18.22325,33.5287039 C18.22325,32.4882545 18.215245,0.819450893 18.215245,0.819450893 L13.3601945,0.819450893 L13.3601945,37.9900551 C13.3601945,39.5497307 14.7130445,40.5801949 15.7096707,40.5801949 L34.0672051,40.5801949 L34.0672051,35.7533884 Z" />
      <path
         style="fill:#e10098;fill-opacity:1"
         id="Fill-3"
         d="M34.0672051,42.4212512 L34.0672051,47.2580429 L9.54379656,47.2580429 C7.86474158,47.2580429 6.70201101,46.0059089 6.70201101,44.3863226 C6.71802107,42.485156 6.70201101,0.817254167 6.70201101,0.817254167 L11.537049,0.817254167 L11.537049,39.4157304 C11.537049,41.1092065 12.275513,42.4212512 14.3468144,42.4212512 L34.0672051,42.4212512 Z" />
      <path
         style="fill:#e10098;fill-opacity:1"
         id="Fill-6"
         d="M-0.000200125743,0.818052976 L4.86285543,0.818052976 L4.86285543,45.7470946 C4.86285543,47.374669 5.6773672,49.0941065 8.05686229,49.0941065 L34.0672051,49.0941065 L34.0672051,53.9189161 L5.77743008,53.9189161 C2.54940184,53.9189161 -0.000200125743,51.2508923 -0.000200125743,48.0676363 L-0.000200125743,0.818052976 Z" />
      <path
         style="fill:#e10098;fill-opacity:1"
         id="Fill-9"
         d="M20.0349884,0.818052976 L24.8960427,0.818052976 L24.8960427,27.2007345 C24.8960427,28.159306 25.3323168,29.0759399 26.7151857,29.0759399 L34.0678055,29.0759399 L34.0678055,33.9167256 L22.5045401,33.9167256 C20.7254222,33.9167256 20.0349884,32.7904042 20.0349884,31.5043208 L20.0349884,0.818052976 Z" />
      <path
         style="fill:#e10098;fill-opacity:1"
         id="Fill-11"
         d="M26.7373996,18.9843795 L40.5480772,18.9843795 C42.0850429,18.9843795 42.5813547,19.9269747 42.5813547,21.211061 C42.5813547,22.2475164 42.5873585,53.9163199 42.5873585,53.9163199 L47.442409,53.9163199 L47.442409,16.7477128 C47.442409,15.1900342 46.089559,14.1575729 45.0929328,14.1575729 L26.7353984,14.1575729 L26.7373996,18.9843795 Z" />
      <path
         style="fill:#e10098;fill-opacity:1"
         id="Fill-13"
         d="M26.7343978,12.3165167 L26.7343978,7.479725 L51.2598076,7.479725 C52.9368613,7.479725 54.1015931,8.73185893 54.1015931,10.3514452 C54.0835818,12.2506149 54.1015931,53.9185167 54.1015931,53.9185167 L49.2665552,53.9185167 L49.2665552,15.3220375 C49.2665552,13.6265643 48.5260899,12.3165167 46.458791,12.3165167 L26.7343978,12.3165167 Z" />
      <path
         style="fill:#e10098;fill-opacity:1"
         id="Fill-15"
         d="M60.801803,53.9187164 L55.9407487,53.9187164 L55.9407487,8.9896747 C55.9407487,7.36409732 55.1242357,5.64465982 52.7447406,5.64465982 L26.7343978,5.64465982 L26.7343978,0.817853274 L55.0281753,0.817853274 C58.2542023,0.817853274 60.801803,3.48987113 60.801803,6.67113006 L60.801803,53.9187164 Z" />
      <path
         style="fill:#e10098;fill-opacity:1"
         id="Fill-18"
         d="M40.7696164,53.9187164 L35.9065608,53.9187164 L35.9065608,27.5400289 C35.9065608,26.5794604 35.4682854,25.6628265 34.0894191,25.6628265 L26.7367993,25.6628265 L26.7367993,20.8200437 L38.2960622,20.8200437 C40.07518,20.8200437 40.7696164,21.9503592 40.7696164,23.2344455 L40.7696164,53.9187164 Z" />
      <path
         style="fill:#e10098;fill-opacity:1"
         id="Fill-20"
         d="M172.347489,30.9617295 C172.347489,29.3041997 173.602278,27.9721848 175.255316,27.9721848 L179.600046,27.9721848 L179.600046,23.0874646 L174.450811,23.0874646 C170.53435,23.0874646 167.440406,26.2547443 167.440406,30.1549318 L167.440406,53.9155211 L172.351492,53.9155211 L172.347489,30.9617295 Z" />
      <polygon
         style="fill:#e10098;fill-opacity:1"
         points="96.0223328 53.912925 100.929416 53.912925 100.929416 22.9989964 96.0223328 22.9989964"
         id="Fill-22" />
      <path
         style="fill:#e10098;fill-opacity:1"
         id="Fill-24"
         d="M195.301312,26.3943363 C201.63329,26.3943363 206.776522,31.5366726 206.776522,37.8492649 C206.776522,44.1638542 201.63329,49.3061905 195.301312,49.3061905 C188.973336,49.3061905 183.830104,44.1638542 183.830104,37.8492649 C183.830104,31.5366726 188.973336,26.3943363 195.301312,26.3943363 L195.301312,26.3943363 Z M223.178828,26.3943363 C229.510806,26.3943363 234.660042,31.5366726 234.660042,37.8492649 C234.660042,44.1638542 229.510806,49.3061905 223.178828,49.3061905 C216.850852,49.3061905 211.699615,44.1638542 211.699615,37.8492649 C211.699615,31.5366726 216.850852,26.3943363 223.178828,26.3943363 L223.178828,26.3943363 Z M251.060346,26.3943363 C257.388322,26.3943363 262.533555,31.5366726 262.533555,37.8492649 C262.533555,44.1638542 257.388322,49.3061905 251.060346,49.3061905 C244.726366,49.3061905 239.583135,44.1638542 239.583135,37.8492649 C239.583135,31.5366726 244.726366,26.3943363 251.060346,26.3943363 L251.060346,26.3943363 Z M178.92102,65.7676577 L183.872131,65.7676577 L183.872131,49.5478304 C186.819983,52.4195506 190.850515,54.1909107 195.301312,54.1909107 C201.193014,54.1909107 206.358259,51.0855387 209.24007,46.4284792 C212.123882,51.0855387 217.291128,54.1909107 223.178828,54.1909107 C229.064526,54.1909107 234.241779,51.0855387 237.117586,46.4284792 C240.001398,51.0855387 245.162641,54.1909107 251.060346,54.1909107 C260.104029,54.1909107 267.432633,46.8758125 267.432633,37.8492649 C267.432633,28.8227173 260.104029,21.505622 251.060346,21.505622 C245.162641,21.505622 240.001398,24.6129911 237.117586,29.2740446 C234.241779,24.6129911 229.064526,21.505622 223.178828,21.505622 C217.291128,21.505622 212.123882,24.6149881 209.24007,29.2740446 C206.358259,24.6149881 201.193014,21.505622 195.301312,21.505622 C186.257629,21.505622 178.92102,28.8227173 178.92102,37.8492649 L178.92102,65.7676577 Z" />
      <path
         style="fill:#e10098;fill-opacity:1"
         id="Fill-25"
         d="M148.646998,26.2245893 C153.590104,26.2245893 158.076923,29.3599167 159.717954,34.254622 L137.55803,34.254622 C139.19706,29.3599167 143.701891,26.2245893 148.646998,26.2245893 M148.646998,54.0211637 C156.17773,54.0211637 162.611772,48.9587083 164.382885,41.6795565 L159.635902,41.6795565 C158.000875,46.3446042 153.604113,49.4799315 148.646998,49.4799315 C142.621212,49.4799315 137.612064,44.9506815 137.023695,38.8018452 L164.847177,38.8018452 L164.847177,37.8492649 C164.847177,28.9325536 157.576609,21.6793631 148.646998,21.6793631 C139.709382,21.6793631 132.436813,28.9325536 132.436813,37.8492649 C132.436813,46.7639792 139.709382,54.0211637 148.646998,54.0211637" />
      <polygon
         style="fill:#e10098;fill-opacity:1"
         points="121.623218 53.9137238 133.91294 22.9997952 128.311421 22.9997952 118.421206 47.8807149 108.530992 22.9997952 102.935476 22.9997952 115.221196 53.9137238"
         id="Fill-26" />
      <polygon
         style="fill:#e10098;fill-opacity:1"
         points="269.861559 53.912925 274.774646 53.912925 274.774646 12.4027881 269.861559 12.4027881"
         id="Fill-27" />
      <path
         style="fill:#e10098;fill-opacity:1"
         id="Fill-28"
         d="M79.1433273,12.4063827 L79.1433273,46.1361149 C79.1593374,47.8136149 80.1299473,49.1236625 82.0491531,49.1236625 L94.1107317,49.1236625 L94.1107317,53.9105286 L77.4902887,53.9085315 C75.3929709,53.9085315 74.1762064,52.6304363 74.1762064,50.7811923 L74.1762064,12.4063827 L79.1433273,12.4063827 Z" />
      <path
         style="fill:#e10098;fill-opacity:1"
         id="Fill-29"
         d="M283.618403,15.4388634 C284.054677,15.4388634 284.338856,15.2731104 284.338856,14.9136461 C284.338856,14.5961193 284.080694,14.396417 283.718466,14.396417 L282.809895,14.396417 L282.809895,15.4388634 L283.618403,15.4388634 Z M282.247542,13.9251193 L283.778504,13.9251193 C284.643047,13.9251193 284.929227,14.4603217 284.929227,14.8297711 C284.929227,15.3949289 284.532978,15.7983277 283.948611,15.8302801 L283.948611,15.8542443 C284.244797,15.9540955 284.460933,16.2536491 284.747112,16.7149616 L285.171379,17.3899557 L284.492953,17.3899557 L284.180756,16.8487622 C283.74048,16.0719199 283.576377,15.9181491 283.15211,15.9181491 L282.809895,15.9181491 L282.809895,17.3899557 L282.247542,17.3899557 L282.247542,13.9251193 Z M283.662431,12.9166223 C282.175497,12.9166223 280.976743,14.1148366 280.976743,15.6046164 C280.976743,17.0904021 282.175497,18.3005985 283.662431,18.3005985 C285.151366,18.3005985 286.36613,17.0904021 286.36613,15.6046164 C286.36613,14.1148366 285.151366,12.9166223 283.662431,12.9166223 L283.662431,12.9166223 Z M283.662431,18.8377979 C281.87931,18.8377979 280.434403,17.3899557 280.434403,15.6046164 C280.434403,13.8172801 281.87931,12.387411 283.662431,12.387411 C285.453556,12.387411 286.902467,13.8172801 286.902467,15.6046164 C286.902467,17.3899557 285.453556,18.8377979 283.662431,18.8377979 L283.662431,18.8377979 Z" />
      <polygon
         style="fill:#e10098;fill-opacity:1"
         points="96.016329 17.3633952 100.929416 17.3633952 100.929416 12.4067821 96.016329 12.4067821"
         id="Fill-30" />
    </g>
  </g>
</svg>
